# xmcd
#
# Track frame offsets:
#	150
#	17220
#	34340
#	52520
#	69072
#	92157
#	111892
#	134522
#	159060
#	179432
#	200575
#	218002
#	236337
#	252255
#
# Disc length: 3760 seconds
#
# Revision: 2
# Processed by: cddbd v1.5.2PL0 Copyright (c) Steve Scherf et al.
# Submitted via: audiograbber 1.83.01
#
DISCID=b30eae0e
DTITLE=Various Artist - Where Blues Meets Rock V
DYEAR=2003
DGENRE=Bluesrock
TTITLE0=Paul Gilbert and Jimi Kidd - Girls Watching
TTITLE1=Michael Katon - The Detroit River Dirty Blues
TTITLE2=Jay Hooks - Last Stand
TTITLE3=Michael Lee Firkins - Still Alive And Well
TTITLE4=The Barrelhouse Brothers - Black Dog Blues
TTITLE5=Jan James - Built Me A Man
TTITLE6=Omar and The Howlers - Life Without You
TTITLE7=Tony Galla - A.S.A.P.
TTITLE8=Carl Verheyen - Yes It Is
TTITLE9=Greg Koch - Ain't Got Problems
TTITLE10=Steve Fister - Funny Bout The Money
TTITLE11=Rob Lamothe and Craig Erickson - Connection
TTITLE12=Rob Tognoni - Drink Jack Boogie
TTITLE13=Dave Hole - Short Fuse Blues
EXTD=
EXTT0=Corrected.
EXTT1=
EXTT2=
EXTT3=
EXTT4=
EXTT5=
EXTT6=
EXTT7=Corrected.\n
EXTT8=
EXTT9=
EXTT10=
EXTT11=Corrected.\n
EXTT12=Corrected.\n
EXTT13=
PLAYORDER=
